<svg xmlns="http://www.w3.org/2000/svg" width="1000" height="1500" viewBox="0 0 1000 1500">
  <rect width="1000" height="1500" fill="#F7F4ED"/>
  <rect x="54" y="54" width="892" height="1392" rx="12" fill="#FFFDF9" stroke="#D8DED5" stroke-width="4"/>
  <text x="88" y="128" fill="#476655" font-family="Arial" font-size="27" font-weight="700" letter-spacing="5">TIDY SMALL SPACES</text>
  <text x="88" y="275" fill="#243229" font-family="Georgia" font-size="73">The 20-Minute</text>
<text x="88" y="359" fill="#243229" font-family="Georgia" font-size="73">Entryway</text>
<text x="88" y="443" fill="#243229" font-family="Georgia" font-size="73">Reset</text>
  <text x="88" y="590" fill="#617067" font-family="Arial" font-size="31">Quick entryway routine</text>
  <line x1="88" y1="640" x2="912" y2="640" stroke="#D8DED5" stroke-width="4"/>
  <rect x="650" y="670" width="220" height="290" rx="12" fill="#DCE6D8"/><rect x="690" y="730" width="140" height="42" rx="10" fill="#FFFDF9"/><rect x="690" y="810" width="140" height="42" rx="10" fill="#FFFDF9"/><circle cx="735" cy="895" r="18" fill="#D7A276"/><rect x="682" y="890" width="128" height="38" rx="8" fill="#476655"/>
  <circle cx="112" cy="837" r="24" fill="#DCE6D8"/><text x="102" y="850" fill="#476655" font-family="Georgia" font-size="35">1</text><text x="158" y="850" fill="#243229" font-family="Arial" font-size="31" font-weight="700">Clear extras</text>
<circle cx="112" cy="929" r="24" fill="#DCE6D8"/><text x="102" y="942" fill="#476655" font-family="Georgia" font-size="35">2</text><text x="158" y="942" fill="#243229" font-family="Arial" font-size="31" font-weight="700">Limit shoes</text>
<circle cx="112" cy="1021" r="24" fill="#DCE6D8"/><text x="102" y="1034" fill="#476655" font-family="Georgia" font-size="35">3</text><text x="158" y="1034" fill="#243229" font-family="Arial" font-size="31" font-weight="700">Add one tray</text>
  <rect x="88" y="1248" width="824" height="88" rx="8" fill="#243229"/>
  <text x="140" y="1305" fill="#FFFDF9" font-family="Arial" font-size="34" font-weight="700">Get the full guide</text>
  <text x="88" y="1408" fill="#617067" font-family="Arial" font-size="25">tidysmallspaces.github.io</text>
</svg>