<svg xmlns="http://www.w3.org/2000/svg" width="1000" height="1500" viewBox="0 0 1000 1500">
  <rect width="1000" height="1500" fill="#F7F4ED"/>
  <rect x="54" y="54" width="892" height="1392" rx="12" fill="#FFFDF9" stroke="#D8DED5" stroke-width="4"/>
  <text x="88" y="128" fill="#476655" font-family="Arial" font-size="27" font-weight="700" letter-spacing="5">TIDY SMALL SPACES</text>
  <text x="88" y="275" fill="#243229" font-family="Georgia" font-size="73">Under-Bed Storage</text>
<text x="88" y="359" fill="#243229" font-family="Georgia" font-size="73">Measure These</text>
<text x="88" y="443" fill="#243229" font-family="Georgia" font-size="73">4 Things</text>
  <text x="88" y="590" fill="#617067" font-family="Arial" font-size="31">Under-bed checklist</text>
  <line x1="88" y1="640" x2="912" y2="640" stroke="#D8DED5" stroke-width="4"/>
  <rect x="625" y="700" width="260" height="180" rx="14" fill="#DCE6D8"/><path d="M650 925h250" stroke="#476655" stroke-width="12" stroke-linecap="round"/><path d="M650 925l28-28M650 925l28 28M900 925l-28-28M900 925l-28 28" stroke="#476655" stroke-width="8" stroke-linecap="round"/><text x="690" y="805" fill="#243229" font-family="Arial" font-size="36" font-weight="700">measure</text>
  <circle cx="112" cy="837" r="24" fill="#DCE6D8"/><text x="102" y="850" fill="#476655" font-family="Georgia" font-size="35">1</text><text x="158" y="850" fill="#243229" font-family="Arial" font-size="31" font-weight="700">Height</text>
<circle cx="112" cy="929" r="24" fill="#DCE6D8"/><text x="102" y="942" fill="#476655" font-family="Georgia" font-size="35">2</text><text x="158" y="942" fill="#243229" font-family="Arial" font-size="31" font-weight="700">Width</text>
<circle cx="112" cy="1021" r="24" fill="#DCE6D8"/><text x="102" y="1034" fill="#476655" font-family="Georgia" font-size="35">3</text><text x="158" y="1034" fill="#243229" font-family="Arial" font-size="31" font-weight="700">Depth</text>
<circle cx="112" cy="1113" r="24" fill="#DCE6D8"/><text x="102" y="1126" fill="#476655" font-family="Georgia" font-size="35">4</text><text x="158" y="1126" fill="#243229" font-family="Arial" font-size="31" font-weight="700">Access</text>
  <rect x="88" y="1248" width="824" height="88" rx="8" fill="#243229"/>
  <text x="140" y="1305" fill="#FFFDF9" font-family="Arial" font-size="34" font-weight="700">Read the full checklist</text>
  <text x="88" y="1408" fill="#617067" font-family="Arial" font-size="25">tidysmallspaces.github.io</text>
</svg>