<svg xmlns="http://www.w3.org/2000/svg" width="1000" height="1500" viewBox="0 0 1000 1500">
  <rect width="1000" height="1500" fill="#F7F4ED"/>
  <rect x="54" y="54" width="892" height="1392" rx="12" fill="#FFFDF9" stroke="#D8DED5" stroke-width="4"/>
  <text x="88" y="128" fill="#476655" font-family="Arial" font-size="27" font-weight="700" letter-spacing="5">TIDY SMALL SPACES</text>
  <text x="88" y="275" fill="#243229" font-family="Georgia" font-size="73">Use the Back</text>
<text x="88" y="359" fill="#243229" font-family="Georgia" font-size="73">of a Door</text>
<text x="88" y="443" fill="#243229" font-family="Georgia" font-size="73">Without Drilling</text>
  <text x="88" y="590" fill="#617067" font-family="Arial" font-size="31">Over-door storage idea</text>
  <line x1="88" y1="640" x2="912" y2="640" stroke="#D8DED5" stroke-width="4"/>
  <rect x="650" y="610" width="210" height="420" rx="8" fill="#FFFDF9" stroke="#D8DED5" stroke-width="5"/><rect x="690" y="675" width="130" height="250" rx="12" fill="#DCE6D8" stroke="#476655" stroke-width="5"/><line x1="690" y1="760" x2="820" y2="760" stroke="#476655" stroke-width="5"/><line x1="690" y1="845" x2="820" y2="845" stroke="#476655" stroke-width="5"/>
  <circle cx="112" cy="837" r="24" fill="#DCE6D8"/><text x="102" y="850" fill="#476655" font-family="Georgia" font-size="35">1</text><text x="158" y="850" fill="#243229" font-family="Arial" font-size="31" font-weight="700">Light items</text>
<circle cx="112" cy="929" r="24" fill="#DCE6D8"/><text x="102" y="942" fill="#476655" font-family="Georgia" font-size="35">2</text><text x="158" y="942" fill="#243229" font-family="Arial" font-size="31" font-weight="700">Easy reach</text>
<circle cx="112" cy="1021" r="24" fill="#DCE6D8"/><text x="102" y="1034" fill="#476655" font-family="Georgia" font-size="35">3</text><text x="158" y="1034" fill="#243229" font-family="Arial" font-size="31" font-weight="700">No holes</text>
  <rect x="88" y="1248" width="824" height="88" rx="8" fill="#243229"/>
  <text x="140" y="1305" fill="#FFFDF9" font-family="Arial" font-size="34" font-weight="700">Get the full guide</text>
  <text x="88" y="1408" fill="#617067" font-family="Arial" font-size="25">tidysmallspaces.github.io</text>
</svg>