<svg xmlns="http://www.w3.org/2000/svg" width="1000" height="1500" viewBox="0 0 1000 1500">
    <rect width="1000" height="1500" fill="#F7F4ED"/>
    <rect x="54" y="54" width="892" height="1392" rx="12" fill="#FFFDF9" stroke="#D8DED5" stroke-width="4"/>
    
  <text x="88" y="128" fill="#476655" font-family="Arial, sans-serif" font-size="27" font-weight="700" letter-spacing="5">TIDY SMALL SPACES</text>
  <text x="88" y="1410" fill="#617067" font-family="Arial, sans-serif" font-size="25">tidysmallspaces.github.io</text>
    <text x="88" y="280" fill="#243229" font-family="Georgia, serif" font-size="74">A Safer Vertical</text>
<text x="88" y="366" fill="#243229" font-family="Georgia, serif" font-size="74">Storage Plan for</text>
<text x="88" y="452" fill="#243229" font-family="Georgia, serif" font-size="74">a Small Home</text>
    <text x="88" y="576" fill="#617067" font-family="Arial, sans-serif" font-size="31">Vertical Storage for Small Spaces</text>
    <line x1="88" y1="625" x2="912" y2="625" stroke="#D8DED5" stroke-width="4"/>
    
      <rect x="112" y="679" width="54" height="54" rx="6" fill="#DCE6D8" stroke="#476655" stroke-width="3"/>
      <path d="M126 706l12 12 20-27" fill="none" stroke="#476655" stroke-linecap="round" stroke-linejoin="round" stroke-width="7"/>
      <text x="208" y="721" fill="#243229" font-family="Arial, sans-serif" font-size="37" font-weight="700">Keep heavy items low</text>
      <rect x="112" y="802" width="54" height="54" rx="6" fill="#DCE6D8" stroke="#476655" stroke-width="3"/>
      <path d="M126 829l12 12 20-27" fill="none" stroke="#476655" stroke-linecap="round" stroke-linejoin="round" stroke-width="7"/>
      <text x="208" y="844" fill="#243229" font-family="Arial, sans-serif" font-size="37" font-weight="700">Check weight limits</text>
      <rect x="112" y="925" width="54" height="54" rx="6" fill="#DCE6D8" stroke="#476655" stroke-width="3"/>
      <path d="M126 952l12 12 20-27" fill="none" stroke="#476655" stroke-linecap="round" stroke-linejoin="round" stroke-width="7"/>
      <text x="208" y="967" fill="#243229" font-family="Arial, sans-serif" font-size="37" font-weight="700">Group similar items</text>
      <rect x="112" y="1048" width="54" height="54" rx="6" fill="#DCE6D8" stroke="#476655" stroke-width="3"/>
      <path d="M126 1075l12 12 20-27" fill="none" stroke="#476655" stroke-linecap="round" stroke-linejoin="round" stroke-width="7"/>
      <text x="208" y="1090" fill="#243229" font-family="Arial, sans-serif" font-size="37" font-weight="700">Use high shelves occasionally</text>
    <rect x="88" y="1260" width="824" height="86" rx="8" fill="#243229"/>
    <text x="140" y="1316" fill="#FFFDF9" font-family="Arial, sans-serif" font-size="34" font-weight="700">Save the full checklist</text>
  </svg>